<svg width="40" height="48" viewBox="0 0 40 48" fill="none" xmlns="http://www.w3.org/2000/svg">
<path fill-rule="evenodd" clip-rule="evenodd" d="M4.29111 28.6025C5.19823 29.5044 5.19821 30.9666 4.29108 31.8685L4.24462 31.9147C3.33749 32.8166 1.86674 32.8165 0.959626 31.9146C0.0525083 31.0127 0.0525222 29.5505 0.959657 28.6486L1.00611 28.6024C1.91325 27.7005 3.38399 27.7006 4.29111 28.6025Z" fill="#A4BCFD"/>
<path fill-rule="evenodd" clip-rule="evenodd" d="M15.2112 29.2981C16.1167 30.2017 16.114 31.6639 15.2052 32.5642L8.77096 38.9382C7.8622 39.8385 6.39146 39.8358 5.48597 38.9323C4.58049 38.0288 4.58315 36.5665 5.49191 35.6663L11.9262 29.2922C12.835 28.392 14.3057 28.3946 15.2112 29.2981Z" fill="#6172F3"/>
<path fill-rule="evenodd" clip-rule="evenodd" d="M23.9429 40.2706C24.6545 39.2094 26.0966 38.9226 27.1641 39.6301L27.3034 39.7225C28.3708 40.43 28.6593 41.8638 27.9477 42.9251C27.2361 43.9863 25.7939 44.2731 24.7265 43.5656L24.5871 43.4732C23.5197 42.7657 23.2312 41.3319 23.9429 40.2706Z" fill="#A4BCFD"/>
<path fill-rule="evenodd" clip-rule="evenodd" d="M39.2728 28.4639C40.18 29.3658 40.18 30.828 39.2728 31.7299L36.1138 34.8707C35.2066 35.7726 33.7359 35.7726 32.8288 34.8707C31.9217 33.9689 31.9217 32.5066 32.8288 31.6047L35.9879 28.4639C36.895 27.562 38.3657 27.562 39.2728 28.4639Z" fill="#6172F3"/>
<path fill-rule="evenodd" clip-rule="evenodd" d="M39.3197 16.8474C40.2268 17.7493 40.2268 19.2116 39.3197 20.1135L15.9751 43.3233C15.068 44.2251 13.5972 44.2251 12.6901 43.3233C11.783 42.4214 11.783 40.9591 12.6901 40.0572L36.0347 16.8474C36.9418 15.9455 38.4125 15.9455 39.3197 16.8474Z" fill="#0410FF"/>
<path fill-rule="evenodd" clip-rule="evenodd" d="M34.905 9.71133C35.8122 10.6132 35.8122 12.0755 34.905 12.9774L21.479 26.3259C20.5719 27.2278 19.1011 27.2278 18.194 26.3259C17.2869 25.424 17.2869 23.9617 18.194 23.0598L31.6201 9.71133C32.5272 8.80944 33.9979 8.80944 34.905 9.71133Z" fill="#0410FF"/>
<path fill-rule="evenodd" clip-rule="evenodd" d="M27.8187 5.18374C28.7264 6.08502 28.7274 7.54727 27.8209 8.44977L10.5621 25.6319C9.65563 26.5344 8.18489 26.5354 7.27715 25.6341C6.36942 24.7329 6.36843 23.2706 7.27494 22.3681L24.5337 5.18594C25.4402 4.28344 26.9109 4.28246 27.8187 5.18374Z" fill="#0410FF"/>
<path fill-rule="evenodd" clip-rule="evenodd" d="M10.7276 10.6841C11.6332 11.5875 11.6307 13.0497 10.722 13.9501L3.96251 20.6474C3.05382 21.5478 1.58308 21.5452 0.67752 20.6418C-0.228043 19.7384 -0.225512 18.2761 0.683174 17.3758L7.44265 10.6784C8.35133 9.7781 9.82207 9.78061 10.7276 10.6841Z" fill="#6172F3"/>
<path fill-rule="evenodd" clip-rule="evenodd" d="M14.8678 4.00031C16.1506 4.00031 17.1906 5.03427 17.1906 6.30974V6.54068C17.1906 7.81614 16.1506 8.85011 14.8678 8.85011C13.5849 8.85011 12.5449 7.81614 12.5449 6.54068V6.30974C12.5449 5.03427 13.5849 4.00031 14.8678 4.00031Z" fill="#A4BCFD"/>
</svg>
